<?xml version="1.0" standalone="no"?>
<!DOCTYPE svg PUBLIC "-//W3C//DTD SVG 1.1//EN" "http://www.w3.org/Graphics/SVG/1.1/DTD/svg11.dtd" >
<svg xmlns="http://www.w3.org/2000/svg">
<metadata></metadata>
<defs>
<font id="webfontregular" horiz-adv-x="1947" >
<font-face units-per-em="2048" ascent="1606" descent="-442" />
<missing-glyph horiz-adv-x="1797" />
<glyph horiz-adv-x="2048" />
<glyph horiz-adv-x="2048" />
<glyph unicode="&#xd;" horiz-adv-x="1797" />
<glyph unicode=" "  horiz-adv-x="1797" />
<glyph unicode="&#x09;" horiz-adv-x="1797" />
<glyph unicode="&#xa0;" horiz-adv-x="1797" />
<glyph unicode="!" horiz-adv-x="790" d="M314 -6v231h180v-231h-180zM314 388v977h180v-977h-180z" />
<glyph unicode="&#x22;" horiz-adv-x="900" d="M213 1361l180 8l23 -520l-180 -8zM499 1361l180 8l23 -520l-180 -8z" />
<glyph unicode="#" d="M267 453v180h195l29 202l178 -26l-40 -279q-11 -77 -89 -77h-273zM325 862v180h195l47 336l178 -26l-58 -413q-11 -77 -89 -77h-273zM375 13l58 413l178 -26l-58 -413zM741 862v180h482l47 336l178 -26l-58 -413q-11 -77 -89 -77h-560zM1078 13l58 413l178 -26l-58 -413z M1387 453v180h273v-180h-273zM1444 862v180h273v-180h-273z" />
<glyph unicode="$" horiz-adv-x="1876" d="M121 983q0 226 90 319q98 101 374 134q98 11 210.5 17t232.5 6q112 0 208 -6t163 -19q140 -25 228 -92q82 -62 116 -158q12 -36 20.5 -94t8.5 -127l-180 -4q0 54 -5 96t-14 71q-19 53 -70.5 84.5t-136.5 46.5q-55 10 -153.5 16t-196.5 6q-226 0 -408 -21.5t-244.5 -78 t-62.5 -195.5q0 -100 40 -140q27 -27 117.5 -54.5t246.5 -27.5h597h49.5t48.5 1q58 0 95.5 -3.5t67.5 -13.5q93 -32 134 -58q59 -38 86 -100q31 -70 31 -189q0 -203 -77 -307q-81 -110 -273 -151q-82 -17 -255 -26.5t-370 -9.5q-108 0 -190.5 3t-142.5 11q-223 28 -301 115 q-82 92 -82 332l1 63l180 -4l-1 -58q0 -144 46.5 -198.5t178.5 -71.5q55 -7 137 -10t189 -3q186 0 340.5 8.5t232.5 24.5q116 25 163 92q44 63 44 188q0 87 -36 127q-25 28 -95 52q-12 5 -32 7t-42 2q-42 0 -71.5 -1t-55.5 -2h-597q-185 0 -299 35t-158 60q-66 38 -95 103 q-32 72 -32 203zM888 -278h180v-234h-180v234zM888 1594v168h180v-168h-180z" />
<glyph unicode="%" horiz-adv-x="2424" d="M108 989q0 116 8.5 194.5t23.5 112.5q39 89 118 122q100 41 344 41q282 0 378 -50q75 -39 102 -162q8 -36 13 -99t5 -148q0 -192 -42 -287q-38 -86 -123 -118q-35 -14 -110.5 -22t-198.5 -8q-158 0 -260 14.5t-141 38.5q-63 42 -87 107q-30 82 -30 264zM287 892 q0 -59 6 -82t28 -39q26 -15 98.5 -20.5t206.5 -5.5q198 0 244 18q32 13 41 44.5t9 105.5v86q0 147 -14 209q-10 47 -37.5 59.5t-110.5 12.5q-34 0 -73 -0.5t-83 -0.5h-72t-64 1q-82 0 -113.5 -10t-47.5 -46q-10 -24 -13.5 -79t-3.5 -156q0 -27 -0.5 -51t-0.5 -46zM718 126 l883 1290l148 -102l-883 -1290zM1328 347q0 252 53 340q36 59 146 90q41 10 113.5 16t180.5 6q162 0 235 -10q175 -22 216 -86q47 -73 47 -355q0 -175 -25 -255q-29 -101 -93 -134q-99 -52 -380 -52q-148 0 -244.5 15.5t-135.5 40.5q-62 41 -84 105q-29 83 -29 279z M1507 223q0 -54 5.5 -74.5t29 -36.5t86 -20.5t192.5 -4.5h119q112 0 141.5 8.5t41.5 49.5q17 58 17 201v64.5t1 57.5q0 83 -18 108.5t-90.5 34t-208.5 8.5q-186 0 -246.5 -16t-66.5 -88q-2 -24 -2 -167q0 -36 -0.5 -67t-0.5 -58z" />
<glyph unicode="&#x26;" horiz-adv-x="2024" d="M70 437q0 204 45 291q50 96 190 139q-49 87 -49 202q0 210 110 290q136 99 528 99q271 0 442 -25.5t244 -74.5q84 -54 115 -124q35 -79 35 -238v-53h-180v51q0 101 -12 143t-56 70q-58 38 -203.5 54.5t-384.5 16.5q-282 0 -370 -39.5t-88 -168.5q0 -124 95 -179 q28 -16 43.5 -39t15.5 -46q0 -30 -24 -53t-68 -29q-153 -22 -200.5 -78t-47.5 -208q0 -170 47 -237q58 -83 234 -104q65 -9 179 -14t233 -5q200 0 360.5 10.5t219.5 29.5l54 -172q-64 -20 -256.5 -32.5t-410.5 -12.5q-259 0 -402 18q-271 33 -362 156q-76 103 -76 362z M960 576l80 162l1030 -508l-80 -162z" />
<glyph unicode="'" horiz-adv-x="614" d="M223 1361l180 8l23 -520l-180 -8z" />
<glyph unicode="(" horiz-adv-x="873" d="M107 578q0 207 10.5 387.5t27.5 239.5q40 145 136 205q126 78 416 78l4 -180q-203 0 -284 -34q-75 -31 -99 -119q-15 -51 -24.5 -214.5t-9.5 -353.5q0 -148 5 -263.5t17 -183.5q21 -107 96.5 -148.5t250.5 -41.5l53 -2l-14 -180l-43 2q-264 0 -382 85q-104 75 -138 253 q-10 62 -16 197t-6 273z" />
<glyph unicode=")" horiz-adv-x="873" d="M162 -53q20 3 50 3h22q169 0 241 43.5t90 146.5q10 50 15 168.5t5 246.5q0 139 -4.5 288.5t-10.5 213.5q-10 107 -47.5 159.5t-122.5 72.5q-41 9 -94 14t-133 5l4 180q92 0 152 -5.5t111 -17.5q150 -35 221.5 -123.5t88.5 -268.5q6 -70 10 -204t4 -300 q0 -154 -5.5 -277.5t-16.5 -184.5q-32 -173 -130 -248q-117 -89 -378 -89l-46 -1z" />
<glyph unicode="*" horiz-adv-x="1264" d="M341 1126l92 154l67 -40v125h180v-74l109 62l88 -156l-65 -37l103 -57l-88 -158l-60 34v-123h-180v74l-105 -62l-92 156l62 36z" />
<glyph unicode="+" d="M375 658v180h494v462h180v-552q0 -90 -90 -90h-584zM869 136v342h180v-342h-180zM1239 658v180h343v-180h-343z" />
<glyph unicode="," horiz-adv-x="753" d="M184 0v230q0 90 90 90h222v-180h-132v-230h-90q-90 0 -90 90z" />
<glyph unicode="-" horiz-adv-x="1043" d="M120 483v180h803v-180h-803z" />
<glyph unicode="." horiz-adv-x="735" d="M277 0v231h180v-231h-180z" />
<glyph unicode="/" horiz-adv-x="1581" d="M87 -212l1247 1862l150 -100l-1247 -1862z" />
<glyph unicode="0" d="M100 672q0 140 7.5 251t24.5 194q47 239 272 301q75 19 232 29.5t331 10.5q181 0 322 -8.5t220 -24.5q147 -30 214 -100q82 -86 109 -283q14 -117 14 -318q0 -144 -6.5 -257t-21.5 -201q-32 -174 -108 -240q-93 -80 -340 -105q-148 -14 -374 -14q-176 0 -335 10.5 t-244 30.5q-258 64 -298 348q-9 66 -14 165t-5 211zM279 670q0 -99 5 -194t13 -155q23 -163 163 -198q75 -18 218 -27.5t302 -9.5q108 0 203 4t169 11q159 16 214.5 55t73.5 142q13 68 20 192.5t7 238.5q0 179 -13 290q-16 115 -60 167q-39 45 -121 63q-71 14 -212.5 22.5 t-305.5 8.5q-171 0 -301 -8.5t-203 -27.5q-116 -30 -143 -163q-14 -70 -21.5 -178.5t-7.5 -232.5z" />
<glyph unicode="1" horiz-adv-x="1944" d="M378 968l485 462q9 9 29 17t33 8h305q90 0 90 -90v-1365h-180v1275h-179l-459 -437z" />
<glyph unicode="2" d="M137 228q0 248 87 366q92 125 312 148q53 6 167 8t253 2h15h469q122 0 161 46.5t39 178.5q0 145 -47 206q-40 52 -119 65.5t-233 21.5t-314 8q-236 0 -349 -16.5t-169.5 -59.5t-69.5 -123q-6 -31 -9 -94t-3 -141h-180q0 185 14 266q24 139 115.5 220.5t267.5 109.5 q57 8 163.5 12t215.5 4q185 0 337 -7.5t227 -20.5q171 -27 242 -106q91 -101 91 -343q0 -229 -81 -318t-299 -89h-469q-113 -1 -234.5 -2t-181.5 -7q-140 -14 -192 -96q-46 -72 -46 -239l1 -58h653v-180h-740q-90 0 -90 86q0 26 -2 77t-2 75z" />
<glyph unicode="3" d="M113 463l180 2q0 -86 4 -147t13 -97q23 -90 120 -115q81 -21 339 -21h24h22h20h17h16h14h12h11h34.5t35.5 1h10h159q259 0 336 15t124 84q20 28 28.5 76t8.5 121q0 120 -20 163q-23 51 -96 69q-40 10 -61.5 32.5t-21.5 51.5q0 26 17.5 48.5t53.5 37.5q75 31 95 75 q17 38 17 153q0 139 -45 189t-185 65q-42 5 -117.5 7t-167.5 2q-140 0 -225.5 -1.5t-196 -3.5t-140.5 -2q-117 -11 -163.5 -35t-63 -91.5t-16.5 -229.5l-180 2q0 100 6 164t17 109q30 126 102 179q85 63 283 82q94 0 177 1.5t208.5 3.5t198.5 2q103 0 178 -2t120 -8 q241 -25 315.5 -109t74.5 -322q0 -127 -15 -194.5t-56 -110.5q45 -45 66 -123t21 -204q0 -105 -18 -179t-52 -122q-72 -106 -195 -137q-149 -38 -570 -38q-467 0 -648 62q-165 56 -202 209q-11 45 -17 114.5t-6 171.5z" />
<glyph unicode="4" d="M123 287v315q0 17 11.5 39.5t24.5 32.5l1021 763q6 4 26 11t28 7h316q90 0 90 -90v-591h234v-180h-324q-90 0 -90 90v591h-196l-961 -718v-180h787q90 0 90 -90v-287h-180v197h-787q-90 0 -90 90z" />
<glyph unicode="5" d="M129 422l180 6q0 -55 2.5 -96t7.5 -70q15 -90 92 -133q61 -34 148 -34h158h93q123 0 258.5 0.5t218 1.5t127.5 5q145 15 195 91.5t50 269.5q0 192 -49 263q-55 79 -222 100q-68 9 -183.5 14t-242.5 5q-147 0 -249.5 -6.5t-146.5 -22.5q-18 -7 -34 -20.5t-33 -35.5 l-144 108q34 47 70.5 75t80.5 43q51 18 189.5 27.5t311.5 9.5q115 0 224.5 -5t179.5 -14q259 -32 345 -143q83 -107 83 -396q0 -290 -88.5 -404.5t-320.5 -138.5q-130 0 -285.5 -1.5t-370.5 -3.5t-223 -2q-147 0 -254 71q-128 85 -156 248q-5 35 -8.5 79.5t-3.5 108.5z M160 1365q0 90 90 90h769v-180h-679l15 -211h-180z" />
<glyph unicode="6" d="M136 718q0 306 46 462q40 135 126 189q54 34 189 59q73 14 239 22t327 8q94 0 181.5 -3t135.5 -8q230 -24 322 -124q89 -96 89 -308v-49h-180v47q0 125 -56 183t-194 72q-45 5 -132.5 8t-191.5 3q-170 0 -301 -6.5t-205 -20.5q-127 -25 -165 -103q-50 -104 -50 -431 q0 -323 15 -425q24 -141 117.5 -174t483.5 -33q369 0 512 29q110 24 154 105q38 70 38 209q0 143 -40 201q-51 73 -184.5 86t-454.5 13q-231 0 -272 -3q-132 -10 -201 -103l-144 108q86 115 187 145q109 33 430 33q333 0 459 -12q244 -24 329 -138q71 -95 71 -328 q0 -216 -73 -329q-78 -122 -261 -163q-74 -15 -216 -24t-334 -9q-344 0 -499.5 35t-213.5 117q-40 57 -66 207q-17 122 -17 453z" />
<glyph unicode="7" horiz-adv-x="1512" d="M162 60l952 1074v141h-617v180h707q90 0 90 -90v-265q0 -13 -7.5 -32t-15.5 -28l-975 -1100z" />
<glyph unicode="8" d="M116 369q0 136 22.5 217.5t75.5 128.5q-39 45 -58 111t-19 167q0 157 48 257.5t136 145.5q61 32 284 47t479 15q139 0 232.5 -3t144.5 -10q177 -23 260.5 -127t83.5 -312q0 -98 -21.5 -169.5t-62.5 -119.5l5 -4q47 -43 75 -126.5t28 -203.5q0 -173 -49.5 -267.5 t-159.5 -143.5q-70 -30 -282 -47t-450 -17q-115 0 -215.5 4t-169.5 13q-168 21 -251 79q-72 51 -108 151q-12 37 -20 92.5t-8 121.5zM296 370q0 -105 18 -156t64 -74.5t147 -36.5q70 -8 180.5 -13t227.5 -5q205 0 379.5 13.5t235 39t82.5 84.5q19 51 19 159q0 83 -9 129 t-35 70q-14 13 -39 23t-63 20q-81 23 -81 86q0 28 19.5 51.5t53.5 34t53.5 18.5t29.5 16q27 22 37 63.5t10 111.5q0 123 -44 186.5t-144 76.5q-53 7 -181 12t-280 5q-209 0 -366 -11t-205.5 -36t-68 -84t-19.5 -159q0 -94 26.5 -138t97.5 -58q41 -9 63 -33t22 -56 q0 -30 -21 -54t-62 -33q-90 -19 -118.5 -72t-28.5 -180z" />
<glyph unicode="9" d="M119 387l180 4q0 -108 9 -150t42 -74q46 -46 128 -63q41 -8 126 -12t177 -4q108 0 200.5 2t198 5t129.5 3q137 12 197 44q66 35 88 116q16 53 24 176t8 299q0 230 -15 325t-65 141q-43 40 -116 53.5t-196 20.5t-266 7q-111 0 -221.5 -5t-196.5 -14q-146 -19 -196 -86 q-46 -62 -46 -219q0 -124 21.5 -190.5t76.5 -92.5q35 -17 71 -26t83 -9q42 -5 143.5 -8t200.5 -3q117 0 202 2t144 8q92 11 136.5 33.5t70.5 65.5l154 -94q-47 -76 -112 -116q-83 -51 -230 -68q-53 -5 -159.5 -8t-225.5 -3q-99 0 -194.5 3t-146.5 8q-133 13 -215 53 q-96 45 -146 149q-54 112 -54 296q0 250 78 348q83 104 322 135q88 10 200.5 15t242.5 5q159 0 283.5 -7.5t204.5 -22.5q138 -25 213 -94q91 -83 117 -247q8 -52 12.5 -145t4.5 -208q0 -199 -10 -330.5t-29 -195.5q-37 -138 -134 -204t-308 -87q-39 0 -136 -2t-203 -4 t-189 -2q-134 0 -215 3.5t-138 14.5q-135 25 -220 109q-58 56 -79 120q-26 78 -26 230z" />
<glyph unicode=":" horiz-adv-x="735" d="M267 0v231h180v-231h-180zM267 718v231h180v-231h-180z" />
<glyph unicode=";" horiz-adv-x="759" d="M184 0v230q0 90 90 90h222v-180h-132v-230h-90q-90 0 -90 90zM316 718v231h180v-231h-180z" />
<glyph unicode="&#x3c;" horiz-adv-x="1264" d="M118 613v140q0 26 13.5 48t37.5 33l887 420l78 -162l-836 -396v-26l836 -396l-78 -162l-887 420q-51 25 -51 81z" />
<glyph unicode="=" d="M175 521v180h1573v-180h-1573zM175 794v180h1573v-180h-1573z" />
<glyph unicode="&#x3e;" horiz-adv-x="1264" d="M140 274l836 396v26l-836 396l78 162l887 -420q51 -25 51 -81v-140q0 -26 -13.5 -48t-37.5 -33l-887 -420z" />
<glyph unicode="?" horiz-adv-x="1693" d="M105 966q0 259 77 363q62 84 226 115q115 20 380 20q197 0 317.5 -8t187.5 -25q143 -37 209 -130q79 -111 79 -340q0 -188 -62.5 -287.5t-208.5 -149.5q-87 -27 -232 -42q-9 -1 -18 -1h-14q-19 0 -34 1t-29 2q-28 0 -39 -18t-11 -77l-180 8q0 159 21.5 205t104.5 50.5 t181 8.5q71 8 116 15.5t78 18.5q83 29 115 89t32 175q0 144 -36 210.5t-117 87.5q-108 27 -458 27q-127 0 -214.5 -4t-134.5 -13q-90 -18 -123 -77t-33 -217l1 -65h-180zM753 0v237h180v-237h-180z" />
<glyph unicode="@" horiz-adv-x="2042" d="M94 688q0 315 48 453q53 150 79 181q62 73 240 103q196 33 637 33q220 0 361.5 -10t198.5 -28q152 -49 217 -174q72 -138 72 -418q0 -263 -45.5 -398t-145.5 -178q-30 -13 -77.5 -19.5t-102.5 -6.5q-58 0 -108.5 6t-80.5 17q-11 4 -25 13t-27 19q-49 -28 -134 -44 t-228 -16q-199 0 -294 20q-133 28 -201.5 117t-68.5 240q0 153 35.5 262.5t103.5 176.5q63 61 215 93q134 28 306 28l2 -180q-207 0 -278 -11t-117.5 -57t-66.5 -122t-20 -189q0 -78 30.5 -123t103 -60t249.5 -15q164 0 214.5 8.5t67.5 38.5q34 61 78 61q38 0 70 -47 q10 -13 15 -19q17 -20 30 -24q44 -17 129 -17q38 0 63 3t47 13q53 22 69 98q12 56 12 206v106q0 208 -31 293q-35 95 -133 127q-49 16 -174 23t-331 7q-394 0 -531 -11t-187 -53q-32 -26 -68 -132q-20 -57 -29 -155t-9 -239q0 -299 36 -404q41 -120 174 -160q62 -19 193 -28 t317 -9q308 0 411.5 6.5t160.5 33.5q44 21 67 68l162 -80q-52 -102 -151 -150q-68 -33 -197.5 -45.5t-452.5 -12.5q-413 0 -562 45q-189 56 -260 203q-78 160 -78 533z" />
<glyph unicode="A" horiz-adv-x="2036" d="M22 44l774 1365q12 20 33.5 33t44.5 13h291q23 0 45 -13t33 -33l772 -1365l-156 -88l-746 1319h-187l-748 -1319zM942 698v180h189v-180h-189z" />
<glyph unicode="B" horiz-adv-x="1989" d="M132 0v1365q0 90 90 90h906q111 0 194.5 -2.5t123.5 -6.5q118 0 207 -55q81 -50 132 -143q24 -42 36.5 -100t12.5 -132q0 -79 -12.5 -140.5t-36.5 -102.5q-5 -9 -9 -15.5t-14 -19.5q34 -27 59 -64q32 -46 49.5 -118t17.5 -168q0 -121 -26.5 -207.5t-73.5 -136.5 q-60 -62 -149 -90q-47 -15 -90 -23q-62 -12 -128 -12q-48 0 -94 -2q-161 -7 -199 -7h-906q-90 0 -90 90zM312 90h816q68 0 164.5 4.5t114.5 4.5q57 0 98 7t80 20q45 13 72.5 42.5t39 83.5t11.5 136q0 66 -8 111.5t-28 73.5q-15 23 -42.5 36.5t-69.5 20t-65.5 30.5t-23.5 55 q0 61 74 88q32 11 52.5 24.5t30.5 33.5q14 24 20 62.5t6 90.5q0 50 -6 85t-21 63q-27 49 -78 76.5t-119 27.5q-35 3 -112 6t-191 3h-815v-1185z" />
<glyph unicode="C" horiz-adv-x="1957" d="M105 661q0 168 11 294t32 205q32 114 112 182t209 87q99 14 244 22t332 8q369 0 527 -37q100 -23 173.5 -89.5t95.5 -157.5q9 -35 14.5 -101t5.5 -159l-180 -2q0 163 -12.5 212t-50 79.5t-87.5 41.5q-71 17 -193.5 25t-292.5 8q-366 0 -550 -28q-141 -21 -173 -139 q-19 -68 -28 -182t-9 -269q0 -162 11 -271t35 -168q35 -84 140 -106q79 -16 226.5 -23t375.5 -7q337 0 461.5 25t144.5 120q9 34 14.5 95.5t5.5 143.5l180 -6q0 -89 -7 -158.5t-17 -114.5q-23 -103 -90.5 -167t-182.5 -88q-71 -14 -200 -22t-309 -8q-473 0 -637 34 q-100 19 -167.5 72.5t-103.5 141.5q-29 69 -44.5 197.5t-15.5 309.5z" />
<glyph unicode="D" horiz-adv-x="2107" d="M132 10v1355q0 90 90 90h942q326 0 458.5 -27t200.5 -80q90 -70 132 -220q47 -168 47 -474q0 -356 -99 -518q-95 -155 -319 -195q-131 -21 -406 -21h-956q-90 0 -90 90zM312 100h866q265 0 375 19q158 28 215 147q54 112 54 386q0 340 -53 463q-47 109 -183 136 q-59 12 -168 18t-254 6h-852v-1175z" />
<glyph unicode="E" horiz-adv-x="1709" d="M132 90v1275q0 90 90 90h1338v-180h-1248v-1095h1249v-180h-1339q-90 0 -90 90zM1322 698v180h189v-180h-189z" />
<glyph unicode="F" horiz-adv-x="1624" d="M132 0v1365q0 90 90 90h1318v-180h-1228v-1275h-180zM1322 698v180h189v-180h-189z" />
<glyph unicode="G" horiz-adv-x="2054" d="M105 682q0 300 44 466q51 197 244 261q76 24 231.5 37.5t372.5 13.5q157 0 330 -7.5t239 -17.5q134 -18 226.5 -91t128.5 -190q13 -42 19.5 -93.5t6.5 -120.5l-180 -4q0 52 -5 94.5t-13 70.5q-21 65 -76 105t-125 50.5t-233 17t-318 6.5q-210 0 -344.5 -10.5 t-204.5 -32.5q-50 -16 -80.5 -49.5t-44.5 -85.5q-38 -148 -38 -420q0 -197 13.5 -311.5t47.5 -168.5q23 -36 62 -58.5t93 -30.5q163 -26 573 -26q426 0 538 37q68 23 99 60t46 114q8 42 13 116t5 188h-701v180h792q90 0 90 -90q0 -164 -6 -270.5t-17 -159.5 q-27 -133 -85 -200.5t-179 -108.5q-67 -21 -221.5 -33.5t-373.5 -12.5q-416 0 -601 28q-191 31 -279 171q-42 66 -65.5 211.5t-23.5 364.5z" />
<glyph unicode="H" horiz-adv-x="2066" d="M132 0v1455h180v-1455h-180zM494 668v180h1095v-180h-1095zM1753 0v1455h180v-1455h-180z" />
<glyph unicode="I" horiz-adv-x="626" d="M222 0v1454h180v-1454h-180z" />
<glyph unicode="J" horiz-adv-x="1633" d="M29 529l180 4q0 -82 4 -140.5t12 -101.5q15 -82 66 -119.5t154 -48.5q72 -8 252 -8q411 0 508.5 35t118.5 193q6 35 8 117.5t2 229.5v775h180v-775q0 -293 -12 -373q-21 -162 -63 -224q-59 -86 -223 -122t-519 -36q-330 0 -473.5 71t-176.5 253q-8 49 -13 114t-5 156z " />
<glyph unicode="K" horiz-adv-x="1845" d="M132 0v1440h180v-1440h-180zM489 699q0 41 52 75l1015 666l98 -150l-901 -591l954 -624l-98 -150l-1068 699q-52 34 -52 75z" />
<glyph unicode="L" horiz-adv-x="1603" d="M132 90v1275h180v-1185h1170v-180h-1260q-90 0 -90 90z" />
<glyph unicode="M" horiz-adv-x="2644" d="M132 0v1365q0 90 90 90h364q20 0 42.5 -12t33.5 -29l665 -1038l653 1037q26 42 76 42h366q90 0 90 -90v-1365h-180v1275h-226l-703 -1115q-35 -55 -77 -55q-40 0 -75 54l-715 1116h-224v-1275h-180z" />
<glyph unicode="N" horiz-adv-x="2168" d="M132 0v1365q0 90 90 90h303q15 0 34.5 -8t29.5 -18l971 -972l-128 -128l-945 946h-175v-1275h-180zM1855 0v1455h180v-1455h-180z" />
<glyph unicode="O" horiz-adv-x="2099" d="M105 687q0 167 12.5 291.5t36.5 199.5q70 213 319 252q91 14 249.5 21.5t367.5 7.5q358 0 507 -24q204 -29 277 -106q78 -83 104 -316q8 -63 12 -148.5t4 -187.5q0 -257 -25 -398q-30 -167 -105.5 -242.5t-247.5 -107.5q-76 -12 -187 -18t-278 -6q-64 0 -187.5 2.5 t-157.5 2.5q-95 0 -148.5 2.5t-103.5 7.5q-205 18 -298.5 95t-129.5 264q-21 129 -21 408zM285 687q0 -274 18 -376q22 -111 83 -157q58 -43 185 -54q30 -3 99.5 -6.5t140.5 -3.5q86 0 211 -2.5t129 -2.5q305 0 434 22q100 18 144.5 62.5t61.5 141.5q23 121 23 366 q0 185 -14 316q-17 144 -62 195t-169 69q-68 12 -185.5 17t-293.5 5q-416 0 -589 -27q-138 -21 -176 -130q-21 -64 -30.5 -170t-9.5 -265z" />
<glyph unicode="P" horiz-adv-x="1888" d="M132 0v1365q0 90 90 90h865q153 0 265 -5.5t157 -11.5q150 -21 230 -130q92 -125 92 -364q0 -77 -7 -136t-21 -108q-44 -152 -126 -207q-99 -67 -334 -67q-48 0 -200 -1t-177 -1l-1 180q85 0 178.5 0.5t195.5 1.5q151 0 209 29t82 116q21 71 21 191q0 154 -41 230 t-127 88q-38 6 -141 10.5t-257 4.5h-773v-1275h-180z" />
<glyph unicode="Q" horiz-adv-x="2120" d="M105 711q0 279 33 419q58 252 309 298q169 32 532 32q84 0 160 -2q227 -6 249 -6q93 0 159 -5.5t110 -14.5q141 -23 212 -99q84 -90 114 -292q18 -126 18 -358l-180 -2q0 210 -16.5 333.5t-60.5 177.5q-40 50 -119 63q-31 6 -99 11.5t-145 5.5q-60 0 -194 4t-208 4 q-347 0 -499 -28q-134 -25 -166 -163q-15 -61 -22 -154t-7 -224q0 -279 27 -423q21 -105 127 -156q83 -40 195 -40q60 0 142.5 -1.5t155 -2.5t122.5 -2v-180q-76 1 -122 1q-153 3 -306 5q-167 0 -299 78q-157 93 -191 264q-15 79 -23 192t-8 265zM1070 494l98 150l864 -563 l-98 -150z" />
<glyph unicode="R" horiz-adv-x="1981" d="M132 0v1365q0 90 90 90h851q170 0 283.5 -4.5t170.5 -13.5q216 -27 302 -201q26 -52 39.5 -122.5t13.5 -159.5q0 -128 -15 -199q-21 -108 -95 -170q55 -58 73 -144q5 -30 9 -93.5t4 -152.5v-195h-180v193q0 163 -10 214q-18 80 -117 96q-42 7 -65 31t-23 57q0 30 22 55 t62 34q65 14 99.5 39t45 74.5t10.5 158.5q0 133 -34 205q-23 45 -64 69.5t-102 32.5q-101 16 -430 16h-760v-1275h-180z" />
<glyph unicode="S" horiz-adv-x="1876" d="M91 983q0 226 90 319q98 101 374 134q98 11 210.5 17t232.5 6q112 0 208 -6t163 -19q140 -25 228 -92q82 -62 116 -158q12 -36 20.5 -94t8.5 -127l-180 -4q0 54 -5 96t-14 71q-19 53 -70.5 84.5t-136.5 46.5q-55 10 -153.5 16t-196.5 6q-226 0 -408 -21.5t-244.5 -78 t-62.5 -195.5q0 -100 40 -140q27 -27 117.5 -54.5t246.5 -27.5h597h49.5t48.5 1q58 0 95.5 -3.5t67.5 -13.5q93 -32 134 -58q59 -38 86 -100q31 -70 31 -189q0 -86 -16.5 -157t-47.5 -125q-40 -65 -110 -109.5t-176 -66.5q-82 -17 -255 -26.5t-370 -9.5q-108 0 -190.5 3 t-142.5 11q-128 16 -204 61q-97 54 -136 133q-43 87 -43 253l1 63l180 -4l-1 -58q0 -104 17 -152.5t69.5 -77.5t138.5 -40q55 -7 137 -10t189 -3q186 0 340.5 8.5t227.5 24t109 34.5q42 22 63 57t30.5 81t9.5 108q0 87 -36 127q-25 28 -95 52q-12 5 -32 7t-42 2 q-42 0 -71.5 -1t-55.5 -2h-597q-185 0 -299 35t-158 60q-66 38 -95 103q-32 72 -32 203z" />
<glyph unicode="T" horiz-adv-x="1791" d="M120 1275v180h1551v-180h-1551zM796 0v1079h180v-1079h-180z" />
<glyph unicode="U" horiz-adv-x="2030" d="M119 784v665h180v-664q0 -122 3 -211.5t6 -155.5q7 -64 29 -110q43 -85 137 -105q32 -7 54 -11q44 -8 81 -8q92 -3 206 -5.5t201 -2.5q179 0 293 6t175 13t90.5 15.5t57.5 25.5q40 26 61.5 70.5t26.5 100.5t8 153.5t3 223.5v665h180v-665q0 -92 -3.5 -188.5t-6.5 -196.5 q-12 -113 -55.5 -191t-118.5 -125q-42 -25 -94.5 -42t-112.5 -24q-99 -11 -237 -16t-266 -5q-133 0 -226.5 2.5t-191.5 5.5q-40 0 -97 10q-32 6 -66 13q-177 38 -259 200q-37 72 -48 175q0 2 -5 158t-5 224z" />
<glyph unicode="V" horiz-adv-x="1990" d="M15 1361l156 88l744 -1279h175l729 1279l158 -88l-754 -1325q-11 -20 -33 -33t-46 -13h-281q-23 0 -45 13t-33 33z" />
<glyph unicode="W" horiz-adv-x="3090" d="M11 1357l164 76l593 -1253h196l504 1024q14 33 36.5 50.5t46.5 17.5q52 0 82 -70l464 -1022h191l628 1253l162 -76l-653 -1305q-25 -52 -81 -52h-307q-60 0 -83 55l-406 886l-444 -888q-10 -23 -33 -38t-49 -15h-312q-59 0 -82 52z" />
<glyph unicode="X" horiz-adv-x="2041" d="M44 65l685 646l-616 589l124 130l684 -654q34 -33 34 -65q0 -34 -34 -65l-753 -711zM1099 711q0 33 35 66l702 654l122 -132l-632 -589l670 -645l-124 -130l-739 711q-34 33 -34 65z" />
<glyph unicode="Y" horiz-adv-x="1982" d="M30 1301l126 128l814 -807q9 -9 18 -29.5t9 -34.5v-558h-180v521zM1295 900l531 528l128 -126l-531 -528z" />
<glyph unicode="Z" horiz-adv-x="1848" d="M140 0v180h1647v-180h-1647zM189 1275v180h1508q90 0 90 -90v-141q0 -17 -9 -37.5t-22 -30.5l-774 -767l-118 136l743 740v10h-1418z" />
<glyph unicode="[" horiz-adv-x="873" d="M166 -136v1501q0 90 90 90h437v-180h-347v-1321h347v-180h-437q-90 0 -90 90z" />
<glyph unicode="\" horiz-adv-x="1581" d="M18 1550l150 100l1219 -1822h142v-180h-190q-21 0 -42 11t-33 29z" />
<glyph unicode="]" horiz-adv-x="873" d="M181 -46h347v1321h-347v180h437q90 0 90 -90v-1501q0 -90 -90 -90h-437v180z" />
<glyph unicode="^" horiz-adv-x="1264" d="M106 811l356 604q11 20 32.5 32t45.5 12h185q23 0 44.5 -12t33.5 -32l356 -604l-156 -92l-330 560h-81l-330 -560z" />
<glyph unicode="_" horiz-adv-x="1264" d="M120 -16h1024v-180h-1024v180z" />
<glyph unicode="`" horiz-adv-x="1264" d="M493 1400l152 96l198 -318l-152 -96z" />
<glyph unicode="a" horiz-adv-x="2036" d="M22 44l774 1365q12 20 33.5 33t44.5 13h291q23 0 45 -13t33 -33l772 -1365l-156 -88l-746 1319h-187l-748 -1319zM942 698v180h189v-180h-189z" />
<glyph unicode="b" horiz-adv-x="1989" d="M132 0v1365q0 90 90 90h906q111 0 194.5 -2.5t123.5 -6.5q118 0 207 -55q81 -50 132 -143q24 -42 36.5 -100t12.5 -132q0 -79 -12.5 -140.5t-36.5 -102.5q-5 -9 -9 -15.5t-14 -19.5q34 -27 59 -64q32 -46 49.5 -118t17.5 -168q0 -121 -26.5 -207.5t-73.5 -136.5 q-60 -62 -149 -90q-47 -15 -90 -23q-62 -12 -128 -12q-48 0 -94 -2q-161 -7 -199 -7h-906q-90 0 -90 90zM312 90h816q68 0 164.5 4.5t114.5 4.5q57 0 98 7t80 20q45 13 72.5 42.5t39 83.5t11.5 136q0 66 -8 111.5t-28 73.5q-15 23 -42.5 36.5t-69.5 20t-65.5 30.5t-23.5 55 q0 61 74 88q32 11 52.5 24.5t30.5 33.5q14 24 20 62.5t6 90.5q0 50 -6 85t-21 63q-27 49 -78 76.5t-119 27.5q-35 3 -112 6t-191 3h-815v-1185z" />
<glyph unicode="c" horiz-adv-x="1957" d="M105 661q0 168 11 294t32 205q32 114 112 182t209 87q99 14 244 22t332 8q369 0 527 -37q100 -23 173.5 -89.5t95.5 -157.5q9 -35 14.5 -101t5.5 -159l-180 -2q0 163 -12.5 212t-50 79.5t-87.5 41.5q-71 17 -193.5 25t-292.5 8q-366 0 -550 -28q-141 -21 -173 -139 q-19 -68 -28 -182t-9 -269q0 -162 11 -271t35 -168q35 -84 140 -106q79 -16 226.5 -23t375.5 -7q337 0 461.5 25t144.5 120q9 34 14.5 95.5t5.5 143.5l180 -6q0 -89 -7 -158.5t-17 -114.5q-23 -103 -90.5 -167t-182.5 -88q-71 -14 -200 -22t-309 -8q-473 0 -637 34 q-100 19 -167.5 72.5t-103.5 141.5q-29 69 -44.5 197.5t-15.5 309.5z" />
<glyph unicode="d" horiz-adv-x="2107" d="M132 10v1355q0 90 90 90h942q326 0 458.5 -27t200.5 -80q90 -70 132 -220q47 -168 47 -474q0 -356 -99 -518q-95 -155 -319 -195q-131 -21 -406 -21h-956q-90 0 -90 90zM312 100h866q265 0 375 19q158 28 215 147q54 112 54 386q0 340 -53 463q-47 109 -183 136 q-59 12 -168 18t-254 6h-852v-1175z" />
<glyph unicode="e" horiz-adv-x="1709" d="M132 90v1275q0 90 90 90h1338v-180h-1248v-1095h1249v-180h-1339q-90 0 -90 90zM1322 698v180h189v-180h-189z" />
<glyph unicode="f" horiz-adv-x="1624" d="M132 0v1365q0 90 90 90h1318v-180h-1228v-1275h-180zM1322 698v180h189v-180h-189z" />
<glyph unicode="g" horiz-adv-x="2054" d="M105 682q0 300 44 466q51 197 244 261q76 24 231.5 37.5t372.5 13.5q157 0 330 -7.5t239 -17.5q134 -18 226.5 -91t128.5 -190q13 -42 19.5 -93.5t6.5 -120.5l-180 -4q0 52 -5 94.5t-13 70.5q-21 65 -76 105t-125 50.5t-233 17t-318 6.5q-210 0 -344.5 -10.5 t-204.5 -32.5q-50 -16 -80.5 -49.5t-44.5 -85.5q-38 -148 -38 -420q0 -197 13.5 -311.5t47.5 -168.5q23 -36 62 -58.5t93 -30.5q163 -26 573 -26q426 0 538 37q68 23 99 60t46 114q8 42 13 116t5 188h-701v180h792q90 0 90 -90q0 -164 -6 -270.5t-17 -159.5 q-27 -133 -85 -200.5t-179 -108.5q-67 -21 -221.5 -33.5t-373.5 -12.5q-416 0 -601 28q-191 31 -279 171q-42 66 -65.5 211.5t-23.5 364.5z" />
<glyph unicode="h" horiz-adv-x="2066" d="M132 0v1455h180v-1455h-180zM494 668v180h1095v-180h-1095zM1753 0v1455h180v-1455h-180z" />
<glyph unicode="i" horiz-adv-x="626" d="M222 0v1454h180v-1454h-180z" />
<glyph unicode="j" horiz-adv-x="1633" d="M29 529l180 4q0 -82 4 -140.5t12 -101.5q15 -82 66 -119.5t154 -48.5q72 -8 252 -8q411 0 508.5 35t118.5 193q6 35 8 117.5t2 229.5v775h180v-775q0 -293 -12 -373q-21 -162 -63 -224q-59 -86 -223 -122t-519 -36q-330 0 -473.5 71t-176.5 253q-8 49 -13 114t-5 156z " />
<glyph unicode="k" horiz-adv-x="1845" d="M132 0v1440h180v-1440h-180zM489 699q0 41 52 75l1015 666l98 -150l-901 -591l954 -624l-98 -150l-1068 699q-52 34 -52 75z" />
<glyph unicode="l" horiz-adv-x="1603" d="M132 90v1275h180v-1185h1170v-180h-1260q-90 0 -90 90z" />
<glyph unicode="m" horiz-adv-x="2644" d="M132 0v1365q0 90 90 90h364q20 0 42.5 -12t33.5 -29l665 -1038l653 1037q26 42 76 42h366q90 0 90 -90v-1365h-180v1275h-226l-703 -1115q-35 -55 -77 -55q-40 0 -75 54l-715 1116h-224v-1275h-180z" />
<glyph unicode="n" horiz-adv-x="2168" d="M132 0v1365q0 90 90 90h303q15 0 34.5 -8t29.5 -18l971 -972l-128 -128l-945 946h-175v-1275h-180zM1855 0v1455h180v-1455h-180z" />
<glyph unicode="o" horiz-adv-x="2099" d="M105 687q0 167 12.5 291.5t36.5 199.5q70 213 319 252q91 14 249.5 21.5t367.5 7.5q358 0 507 -24q204 -29 277 -106q78 -83 104 -316q8 -63 12 -148.5t4 -187.5q0 -257 -25 -398q-30 -167 -105.5 -242.5t-247.5 -107.5q-76 -12 -187 -18t-278 -6q-64 0 -187.5 2.5 t-157.5 2.5q-95 0 -148.5 2.5t-103.5 7.5q-205 18 -298.5 95t-129.5 264q-21 129 -21 408zM285 687q0 -274 18 -376q22 -111 83 -157q58 -43 185 -54q30 -3 99.5 -6.5t140.5 -3.5q86 0 211 -2.5t129 -2.5q305 0 434 22q100 18 144.5 62.5t61.5 141.5q23 121 23 366 q0 185 -14 316q-17 144 -62 195t-169 69q-68 12 -185.5 17t-293.5 5q-416 0 -589 -27q-138 -21 -176 -130q-21 -64 -30.5 -170t-9.5 -265z" />
<glyph unicode="p" horiz-adv-x="1888" d="M132 0v1365q0 90 90 90h865q153 0 265 -5.5t157 -11.5q150 -21 230 -130q92 -125 92 -364q0 -77 -7 -136t-21 -108q-44 -152 -126 -207q-99 -67 -334 -67q-48 0 -200 -1t-177 -1l-1 180q85 0 178.5 0.5t195.5 1.5q151 0 209 29t82 116q21 71 21 191q0 154 -41 230 t-127 88q-38 6 -141 10.5t-257 4.5h-773v-1275h-180z" />
<glyph unicode="q" horiz-adv-x="2120" d="M105 711q0 279 33 419q58 252 309 298q169 32 532 32q84 0 160 -2q227 -6 249 -6q93 0 159 -5.5t110 -14.5q141 -23 212 -99q84 -90 114 -292q18 -126 18 -358l-180 -2q0 210 -16.5 333.5t-60.5 177.5q-40 50 -119 63q-31 6 -99 11.5t-145 5.5q-60 0 -194 4t-208 4 q-347 0 -499 -28q-134 -25 -166 -163q-15 -61 -22 -154t-7 -224q0 -279 27 -423q21 -105 127 -156q83 -40 195 -40q60 0 142.5 -1.5t155 -2.5t122.5 -2v-180q-76 1 -122 1q-153 3 -306 5q-167 0 -299 78q-157 93 -191 264q-15 79 -23 192t-8 265zM1070 494l98 150l864 -563 l-98 -150z" />
<glyph unicode="r" horiz-adv-x="1981" d="M132 0v1365q0 90 90 90h851q170 0 283.5 -4.5t170.5 -13.5q216 -27 302 -201q26 -52 39.5 -122.5t13.5 -159.5q0 -128 -15 -199q-21 -108 -95 -170q55 -58 73 -144q5 -30 9 -93.5t4 -152.5v-195h-180v193q0 163 -10 214q-18 80 -117 96q-42 7 -65 31t-23 57q0 30 22 55 t62 34q65 14 99.5 39t45 74.5t10.5 158.5q0 133 -34 205q-23 45 -64 69.5t-102 32.5q-101 16 -430 16h-760v-1275h-180z" />
<glyph unicode="s" horiz-adv-x="1876" d="M91 983q0 226 90 319q98 101 374 134q98 11 210.5 17t232.5 6q112 0 208 -6t163 -19q140 -25 228 -92q82 -62 116 -158q12 -36 20.5 -94t8.5 -127l-180 -4q0 54 -5 96t-14 71q-19 53 -70.5 84.5t-136.5 46.5q-55 10 -153.5 16t-196.5 6q-226 0 -408 -21.5t-244.5 -78 t-62.5 -195.5q0 -100 40 -140q27 -27 117.5 -54.5t246.5 -27.5h597h49.5t48.5 1q58 0 95.5 -3.5t67.5 -13.5q93 -32 134 -58q59 -38 86 -100q31 -70 31 -189q0 -86 -16.5 -157t-47.5 -125q-40 -65 -110 -109.5t-176 -66.5q-82 -17 -255 -26.5t-370 -9.5q-108 0 -190.5 3 t-142.5 11q-128 16 -204 61q-97 54 -136 133q-43 87 -43 253l1 63l180 -4l-1 -58q0 -104 17 -152.5t69.5 -77.5t138.5 -40q55 -7 137 -10t189 -3q186 0 340.5 8.5t227.5 24t109 34.5q42 22 63 57t30.5 81t9.5 108q0 87 -36 127q-25 28 -95 52q-12 5 -32 7t-42 2 q-42 0 -71.5 -1t-55.5 -2h-597q-185 0 -299 35t-158 60q-66 38 -95 103q-32 72 -32 203z" />
<glyph unicode="t" horiz-adv-x="1791" d="M120 1275v180h1551v-180h-1551zM796 0v1079h180v-1079h-180z" />
<glyph unicode="u" horiz-adv-x="2030" d="M119 784v665h180v-664q0 -122 3 -211.5t6 -155.5q7 -64 29 -110q43 -85 137 -105q32 -7 54 -11q44 -8 81 -8q92 -3 206 -5.5t201 -2.5q179 0 293 6t175 13t90.5 15.5t57.5 25.5q40 26 61.5 70.5t26.5 100.5t8 153.5t3 223.5v665h180v-665q0 -92 -3.5 -188.5t-6.5 -196.5 q-12 -113 -55.5 -191t-118.5 -125q-42 -25 -94.5 -42t-112.5 -24q-99 -11 -237 -16t-266 -5q-133 0 -226.5 2.5t-191.5 5.5q-40 0 -97 10q-32 6 -66 13q-177 38 -259 200q-37 72 -48 175q0 2 -5 158t-5 224z" />
<glyph unicode="v" horiz-adv-x="1990" d="M15 1361l156 88l744 -1279h175l729 1279l158 -88l-754 -1325q-11 -20 -33 -33t-46 -13h-281q-23 0 -45 13t-33 33z" />
<glyph unicode="w" horiz-adv-x="3090" d="M11 1357l164 76l593 -1253h196l504 1024q14 33 36.5 50.5t46.5 17.5q52 0 82 -70l464 -1022h191l628 1253l162 -76l-653 -1305q-25 -52 -81 -52h-307q-60 0 -83 55l-406 886l-444 -888q-10 -23 -33 -38t-49 -15h-312q-59 0 -82 52z" />
<glyph unicode="x" horiz-adv-x="2041" d="M44 65l685 646l-616 589l124 130l684 -654q34 -33 34 -65q0 -34 -34 -65l-753 -711zM1099 711q0 33 35 66l702 654l122 -132l-632 -589l670 -645l-124 -130l-739 711q-34 33 -34 65z" />
<glyph unicode="y" horiz-adv-x="1982" d="M30 1301l126 128l814 -807q9 -9 18 -29.5t9 -34.5v-558h-180v521zM1295 900l531 528l128 -126l-531 -528z" />
<glyph unicode="z" horiz-adv-x="1848" d="M140 0v180h1647v-180h-1647zM189 1275v180h1508q90 0 90 -90v-141q0 -17 -9 -37.5t-22 -30.5l-774 -767l-118 136l743 740v10h-1418z" />
<glyph unicode="{" horiz-adv-x="873" d="M46 565v140q0 90 85 90q10 0 23.5 -4t15.5 -1q3 5 3 14q0 8 -1.5 28.5t-1.5 26.5q0 212 19.5 311.5t84.5 174.5t171 108q49 15 120 25t157 10l8 -180q-75 0 -131 -7t-102 -20q-110 -35 -132 -161q-7 -35 -11 -108.5t-4 -155.5q0 -67 -11.5 -113t-28.5 -66 q-11 -13 -31 -25t-34 -17q25 -10 41.5 -23.5t26.5 -30.5q15 -24 24.5 -74.5t9.5 -132.5q0 -189 24 -275q17 -55 53.5 -89.5t86.5 -43.5t100 -13.5t117 -4.5l-4 -180q-74 0 -134.5 5.5t-100.5 14.5q-117 20 -191 90q-68 64 -99.5 170.5t-31.5 324.5v34.5t1 31.5q0 37 -7 46 q-2 2 -11.5 -4t-16.5 -6q-87 0 -87 90z" />
<glyph unicode="|" horiz-adv-x="1264" d="M521 -341v1706h180v-1706h-180z" />
<glyph unicode="}" horiz-adv-x="873" d="M144 -52q93 0 155.5 8t101.5 23q51 20 87 86q20 36 29 115t9 195q0 78 10 131t24 75q11 16 28 30t41 24q-25 9 -42.5 20t-26.5 23q-15 21 -26 66t-11 113q0 264 -36.5 332.5t-108.5 90.5q-43 12 -103.5 20t-130.5 8l6 180q82 0 151 -9.5t127 -26.5q145 -40 218 -180 q25 -46 41 -151.5t16 -262.5q0 -18 -1 -31.5t-2 -25.5q0 -10 2 -13q3 -2 17 2.5t24 4.5q84 0 84 -90v-140q0 -90 -88 -90q-7 0 -16 5.5t-11 3.5q-6 -16 -6 -72v-40q0 -146 -15.5 -243.5t-44.5 -149.5q-33 -62 -77.5 -103.5t-101.5 -64.5q-48 -18 -129 -30.5t-188 -12.5z" />
<glyph unicode="~" horiz-adv-x="1605" d="M232 1295q66 135 147 204q48 41 85 58q48 22 106 22t127 -21t166 -70q29 -14 81 -40t71 -26q20 0 44 21q32 26 70 93l156 -90q-29 -51 -56 -85t-55 -57q-41 -35 -63 -47q-32 -18 -70 -18q-41 0 -97.5 19t-159.5 69q-68 35 -117.5 52t-83.5 17q-25 0 -46 -8.5t-42 -26.5 q-53 -44 -101 -144z" />
<glyph unicode="&#xad;" horiz-adv-x="1043" d="M120 483v180h803v-180h-803z" />
<glyph unicode="&#x2000;" horiz-adv-x="881" />
<glyph unicode="&#x2001;" horiz-adv-x="1762" />
<glyph unicode="&#x2002;" horiz-adv-x="881" />
<glyph unicode="&#x2003;" horiz-adv-x="1762" />
<glyph unicode="&#x2004;" horiz-adv-x="587" />
<glyph unicode="&#x2005;" horiz-adv-x="440" />
<glyph unicode="&#x2006;" horiz-adv-x="293" />
<glyph unicode="&#x2007;" horiz-adv-x="293" />
<glyph unicode="&#x2008;" horiz-adv-x="220" />
<glyph unicode="&#x2009;" horiz-adv-x="352" />
<glyph unicode="&#x200a;" horiz-adv-x="97" />
<glyph unicode="&#x2010;" horiz-adv-x="1043" d="M120 483v180h803v-180h-803z" />
<glyph unicode="&#x2011;" horiz-adv-x="1043" d="M120 483v180h803v-180h-803z" />
<glyph unicode="&#x2012;" horiz-adv-x="1043" d="M120 483v180h803v-180h-803z" />
<glyph unicode="&#x2013;" horiz-adv-x="1456" d="M188 398v174h1080v-174h-1080z" />
<glyph unicode="&#x2014;" horiz-adv-x="2276" d="M188 398v174h1899v-174h-1899z" />
<glyph unicode="&#x2018;" horiz-adv-x="753" d="M220 1045v230q0 90 90 90h222v-180h-132v-230h-90q-90 0 -90 90z" />
<glyph unicode="&#x2019;" horiz-adv-x="753" d="M228 1185v180h222q90 0 90 -90v-230q0 -90 -90 -90h-90v230h-132z" />
<glyph unicode="&#x201c;" horiz-adv-x="1116" d="M220 1045v230q0 90 90 90h222v-180h-132v-230h-90q-90 0 -90 90zM590 1045v230q0 90 90 90h222v-180h-132v-230h-90q-90 0 -90 90z" />
<glyph unicode="&#x201d;" horiz-adv-x="1053" d="M198 1185v180h222q90 0 90 -90v-230q0 -90 -90 -90h-90v230h-132zM568 1185v180h222q90 0 90 -90v-230q0 -90 -90 -90h-90v230h-132z" />
<glyph unicode="&#x2022;" horiz-adv-x="1605" d="M521 693q0 128 79.5 206.5t208.5 78.5q126 0 203 -78t77 -206q0 -127 -78.5 -205.5t-205.5 -78.5t-205.5 77.5t-78.5 205.5z" />
<glyph unicode="&#x202f;" horiz-adv-x="352" />
<glyph unicode="&#x205f;" horiz-adv-x="440" />
<glyph unicode="&#xe000;" horiz-adv-x="1430" d="M0 0v1430h1430v-1430h-1430z" />
</font>
</defs>
</svg>
